<?xml version="1.0"?>
<svg xmlns="http://www.w3.org/2000/svg" xmlns:xlink="http://www.w3.org/1999/xlink" xmlns:svgjs="http://svgjs.com/svgjs" version="1.1" width="512" height="512" x="0" y="0" viewBox="0 0 511.997 511.997" style="enable-background:new 0 0 512 512" xml:space="preserve" class=""><g><g xmlns="http://www.w3.org/2000/svg"><g><path d="m141.248 59.371c-2.629.378-4.984 1.542-6.819 3.273-1.835-1.731-4.19-2.895-6.819-3.273l-15.556-2.235-6.943-13.912c-4.599-9.224-17.811-9.219-22.411-.001l-6.942 13.913-15.558 2.235c-12.951 2.129-13.951 13.379-6.915 21.279l11.207 10.805-2.642 15.237c-1.352 14.972 6.617 16.253 18.122 13.162l13.934-7.246 13.934 7.246c8.13 4.229 19.97-2.508 18.122-13.162l-2.642-15.237 11.109-10.71 11.109 10.71-2.643 15.237c-1.847 10.654 9.992 17.391 18.122 13.162l13.935-7.246 13.934 7.246c11.362 5.146 19.612-1.354 18.122-13.162l-2.643-15.237 11.109-10.71 11.109 10.71-2.642 15.237c-1.847 10.654 9.992 17.391 18.122 13.162l13.934-7.245 13.934 7.245c11.316 4.896 20.566-.354 18.122-13.162l-2.642-15.237 11.11-10.71 11.109 10.71-2.643 15.237c-1.847 10.654 9.992 17.391 18.122 13.162l13.935-7.246 13.934 7.246c12.511 4.646 19.52-.854 18.122-13.162l-2.643-15.237 11.11-10.71 11.108 10.71-2.642 15.237c-1.847 10.654 9.992 17.391 18.122 13.162l13.934-7.246 13.934 7.246c11.474 5.396 19.974-.604 18.122-13.162l-2.642-15.237 11.208-10.805c8.285-8.4 5.785-19.15-6.917-21.279l-15.557-2.235-6.942-13.913c-5.549-10.723-16.779-11.294-22.411 0l-6.943 13.913-15.556 2.235c-2.629.378-4.984 1.542-6.819 3.273-1.834-1.731-4.19-2.895-6.819-3.273l-15.557-2.235-6.942-13.913c-4.752-10.473-16.776-11.291-22.411 0l-6.942 13.913-15.557 2.235c-2.629.378-4.985 1.542-6.819 3.272-1.835-1.73-4.19-2.895-6.819-3.272l-15.556-2.235-6.942-13.913c-5.456-11.223-16.777-11.292-22.412 0l-6.942 13.913-15.556 2.235c-2.629.378-4.984 1.542-6.819 3.272-1.834-1.731-4.19-2.895-6.819-3.272l-15.554-2.235-6.942-13.913c-5.159-11.223-16.776-11.292-22.411 0l-6.942 13.913zm-29.315 22.227c-2.977 2.868-4.333 7.008-3.627 11.07l2.005 11.565-10.614-5.521c-1.813-.941-3.801-1.413-5.79-1.413s-3.979.472-5.794 1.414l-10.613 5.519 2.005-11.563c.706-4.064-.65-8.204-3.626-11.071l-8.419-8.117 11.711-1.683c4.068-.584 7.589-3.12 9.42-6.787l5.314-10.65 5.313 10.648c1.828 3.667 5.35 6.204 9.419 6.789l11.713 1.684zm291.426-9.799c4.069-.585 7.591-3.122 9.418-6.787l5.314-10.65 5.315 10.652c1.83 3.665 5.351 6.201 9.418 6.785l11.712 1.683-8.418 8.116c-2.977 2.868-4.333 7.008-3.627 11.07l2.005 11.564-10.615-5.521c-3.627-1.884-7.957-1.882-11.582.002l-10.613 5.52 2.005-11.563c.706-4.064-.65-8.204-3.626-11.071l-8.419-8.116zm-81.048 0c4.068-.584 7.589-3.12 9.42-6.787l5.314-10.65 5.314 10.652c1.83 3.665 5.351 6.201 9.418 6.785l11.712 1.684-8.42 8.117c-2.974 2.867-4.328 7.004-3.625 11.068l2.006 11.564-10.614-5.52c-3.627-1.885-7.957-1.884-11.584.001l-10.613 5.519 2.007-11.566c.702-4.063-.652-8.199-3.627-11.067l-8.419-8.117zm-81.045 0c4.069-.585 7.591-3.122 9.418-6.787l5.314-10.651 5.313 10.649c1.828 3.667 5.35 6.204 9.419 6.789l11.713 1.684-8.418 8.115c-2.977 2.868-4.333 7.008-3.627 11.07l2.005 11.565-10.614-5.521c-3.627-1.883-7.956-1.885-11.583.001l-10.613 5.52 2.005-11.563c.706-4.064-.65-8.204-3.626-11.071l-8.419-8.116zm-71.628-6.787 5.314-10.65 5.314 10.652c1.83 3.665 5.351 6.201 9.418 6.785l11.712 1.683-8.42 8.118c-2.974 2.867-4.328 7.004-3.625 11.068l2.006 11.564-10.614-5.52c-1.813-.942-3.802-1.413-5.791-1.413s-3.979.472-5.793 1.414l-10.613 5.519 2.007-11.566c.702-4.063-.652-8.199-3.627-11.067l-8.419-8.116 11.711-1.684c4.069-.584 7.589-3.12 9.42-6.787z" fill="#ffffff" data-original="#000000" style="" class=""/><path d="m249.736 207.679c1.388 2.105 3.741 3.373 6.263 3.373s4.875-1.268 6.263-3.373l33.418-50.709h76.447c4.143 0 7.5-3.357 7.5-7.5s-3.357-7.5-7.5-7.5h-80.487c-2.521 0-4.875 1.268-6.263 3.373l-29.379 44.579-29.379-44.579c-1.388-2.105-3.741-3.373-6.263-3.373h-178.644c-5.456 0-9.896-4.357-9.896-9.713v-107.544c0-5.355 4.439-9.713 9.896-9.713h113.11c4.143 0 7.5-3.357 7.5-7.5s-3.357-7.5-7.5-7.5h-113.11c-13.727 0-24.895 11.086-24.895 24.713v107.544c0 13.627 11.168 24.713 24.896 24.713h174.605z" fill="#ffffff" data-original="#000000" style="" class=""/><path d="m470.285 0h-277.961c-4.143 0-7.5 3.357-7.5 7.5s3.357 7.5 7.5 7.5h277.961c5.456 0 9.896 4.357 9.896 9.713v107.544c0 5.355-4.439 9.713-9.896 9.713h-60.657c-4.143 0-7.5 3.357-7.5 7.5s3.357 7.5 7.5 7.5h60.657c13.728 0 24.896-11.086 24.896-24.713v-107.544c-.001-13.627-11.169-24.713-24.896-24.713z" fill="#ffffff" data-original="#000000" style="" class=""/><path d="m419.763 355.889c0-14.438-11.746-26.185-26.185-26.185h-75.168c7.213-24.525 6.3-50.137-2.711-79.675-3.089-10.119-12.309-16.918-22.942-16.918-15.221 1.554-23.213 9.972-23.975 25.254 1.717 33.039-13.647 44.505-34.911 60.374-6.361 4.747-13.245 9.888-20.108 16.003-1.005-2.958-3.799-5.089-7.097-5.089h-28.186v-11.189c0-4.143-3.357-7.5-7.5-7.5h-71.249c-4.143 0-7.5 3.357-7.5 7.5v91.387c0 4.143 3.357 7.5 7.5 7.5s7.5-3.357 7.5-7.5v-83.887h56.249v171.033h-56.249v-49.646c0-4.143-3.357-7.5-7.5-7.5s-7.5 3.357-7.5 7.5v57.146c0 4.143 3.357 7.5 7.5 7.5h71.249c4.143 0 7.5-3.357 7.5-7.5v-10.319h28.187c4.143 0 7.5-3.357 7.5-7.5v-7.253c9.392 1.069 16.459 3.209 23.262 8.424 5.322 4.081 11.892 6.329 18.499 6.329h117.539c20.725 0 33.551-24.131 21.367-41.303 12.401-7.715 16.075-26.099 7.135-37.971 11.719-7.99 14.914-25.752 6.25-37.316 6.96-4.711 11.544-12.68 11.544-21.699zm-220.596 123.289h-20.687v-134.525h20.687v126.623zm194.412-112.106h-23.243c-4.143 0-7.5 3.357-7.5 7.5s3.357 7.5 7.5 7.5h16.917c6.167 0 11.184 5.018 11.184 11.185s-5.017 11.185-11.184 11.185h-16.917c-4.143 0-7.5 3.357-7.5 7.5s3.357 7.5 7.5 7.5h10.705c6.167 0 11.185 5.017 11.185 11.184s-5.018 11.185-11.185 11.185h-16.917c-4.143 0-7.5 3.357-7.5 7.5s3.357 7.5 7.5 7.5h9.343c6.167 0 11.184 5.018 11.184 11.185s-5.017 11.184-11.184 11.184h-117.54c-3.325 0-6.653-1.147-9.371-3.232-10.498-8.048-21.601-10.554-32.39-11.619v-108.997c9.213-10.046 19.097-17.423 28.676-24.571 22.141-16.522 43.053-32.129 40.921-73.173.285-5.734 3.284-8.893 8.994-9.477 3.93 0 7.464 2.589 8.595 6.296 9.233 30.267 9.103 55.708-.414 80.068-.901 2.308-.604 4.912.793 6.958 1.397 2.047 3.716 3.271 6.193 3.271h85.654c6.167 0 11.185 5.018 11.185 11.185s-5.017 11.183-11.184 11.183z" fill="#ffffff" data-original="#000000" style="" class=""/></g><path d="m135.378 370.529c-4.753 0-8.606-3.853-8.606-8.606 0-4.753 3.853-8.606 8.606-8.606 4.753 0 8.606 3.853 8.606 8.606 0 4.753-3.853 8.606-8.606 8.606z" fill="#ffffff" data-original="#000000" style="" class=""/></g></g></svg>
