<?xml version="1.0"?>
<svg xmlns="http://www.w3.org/2000/svg" xmlns:xlink="http://www.w3.org/1999/xlink" xmlns:svgjs="http://svgjs.com/svgjs" version="1.1" width="512" height="512" x="0" y="0" viewBox="0 0 512 512" style="enable-background:new 0 0 512 512" xml:space="preserve" class=""><g><g xmlns="http://www.w3.org/2000/svg"><path d="m476.051 452 31.984-34.858c8.81-9.6 1.973-25.142-11.051-25.142h-86.287v-15c0-8.284-6.715-15-14.999-15h-25.771v-41.78c0-21.834 14.843-45.71 26.005-68.174 7.844-15.752 12.483-31.626 12.483-50.576v-76.467-.003-54.268c0-22.459-18.271-40.732-40.729-40.732h-8.536c-7.182 0-13.931 1.876-19.796 5.153-7.473-9.235-18.888-15.153-31.664-15.153h-8.536c-7.182 0-13.931 1.876-19.796 5.152-7.472-9.234-18.887-15.152-31.662-15.152h-8.54c-7.182 0-13.93 1.876-19.795 5.152-7.472-9.234-18.888-15.152-31.663-15.152h-8.536c-22.459 0-40.73 18.272-40.73 40.732v69.687c-16.843 2.412-30.176 15.105-33.828 31.226-1.382 6.022-1.019 3.217-1.019 73.834 0 14.885 4.319 29.312 12.491 41.721.851 1.293-1.421-1.364 35.975 40.694v64.106h-35.75c-8.284 0-14.999 6.716-14.999 15v15h-86.287c-13.029 0-19.858 15.546-11.051 25.142l31.985 34.858-31.985 34.858c-8.81 9.601-1.973 25.142 11.051 25.142h101.287c8.284 0 14.999-6.716 14.999-15v-15h249.398v15c0 8.284 6.715 15 14.999 15h101.287c13.029 0 19.858-15.546 11.051-25.142zm-116.9-392h8.536c5.917 0 10.731 4.814 10.731 10.732v54.268.003c0 8.271-6.728 15-14.999 15s-14.999-6.729-14.999-15v-54.271c-.001-5.918 4.813-10.732 10.731-10.732zm-59.997-10h8.536c5.917 0 10.731 4.814 10.731 10.732v64.271c0 8.271-6.728 15-14.999 15s-14.999-6.729-14.999-15v-.003-64.268c0-5.918 4.814-10.732 10.731-10.732zm-59.998-10h8.54c5.916 0 10.729 4.813 10.729 10.73v59.926c-4.964-.849-5.722-.656-29.998-.656v-59.27c0-5.917 4.813-10.73 10.729-10.73zm-59.994-10h8.536c5.917 0 10.731 4.814 10.731 10.732v69.268h-29.999v-69.268c0-5.918 4.815-10.732 10.732-10.732zm-.903 252.222-37.675-42.371c-4.583-7.302-7.001-15.707-7.001-24.371v-64.77c0-5.911 4.785-10.71 10.7-10.71h106.534c8.271 0 14.999 6.729 14.999 15 0 8.282-6.717 15-14.999 15h-52.528c-7.691 0-14.135 5.817-14.921 13.468-.785 7.651 4.342 14.656 11.872 16.219.05.01 5.49 1.531 10.937 6.608 8.852 8.25 13.341 21.276 13.341 38.715 0 8.284 6.715 15 14.999 15s14.999-6.716 14.999-15c0-19.841-4.637-34.437-10.624-45.01h11.925c20.136 0 36.994-13.169 42.8-31.085 14.304 3.193 29.017-.738 39.803-10.406 12.325 11.048 29.553 14.393 44.997 8.915 0 38.593 1.926 48.642-9.342 71.261-11.762 23.67-29.146 51.469-29.146 81.536v41.779h-157.879v-69.81c0-3.675-1.349-7.222-3.791-9.968zm-76.956 199.778h-52.168l18.221-19.858c5.264-5.736 5.264-14.547 0-20.283l-18.221-19.859h52.168zm29.998-30c0-6.893 0-53.533 0-60h249.398v60zm313.342 10.142 18.222 19.858h-52.168c0-6.569 0-52.366 0-60h52.168l-18.221 19.858c-5.265 5.737-5.265 14.547-.001 20.284z" fill="#545b62" data-original="#000000" style="" class=""/></g></g></svg>
